<?xml version="1.0" encoding="utf-8"?>
<svg version="1.1"
     xmlns="http://www.w3.org/2000/svg" xmlns:xlink="http://www.w3.org/1999/xlink"
      width="0" height="0" overflow="visible" viewBox="0 0 100% 100%">
  <defs>

    <clipPath id="wave">
      <path d="M-0.25,50.5c0,0,189.229-31.954,349.125-33.25C611,15.125,912.938,64.125,1234.938,39.125s222.031-24.062,551.031-29.062
      s645.016,27.969,954.016,19.969s446.008-29.016,757.008-25.016s435.004,26.992,654.004,29.992S5152.998-0.996,5313.998,10.004
      s600.001,43.998,835.001,39.998S6880,14.001,7125,27.001S7920,3,8138,10s726.5,34,909.5,26S9999,0,10000,0v100000H0L-0.25,50.5z"/>
    </clipPath>

    <clipPath id="jaggy">
      <polygon points="10000 100000, 10000 0, 9000 10, 8000 25, 7000 45, 6000 30, 5000 25, 4000 45, 3000 35, 2000 10, 1200 50, 800 35, 600 25, 400 40, 200 35, 0 50, 0 100000"/>
    </clipPath>

    <clipPath id="subtle-jaggy">
      <polygon points="10000 100000, 10000 0, 2000 0, 1000 10, 600 20, 350 15, 0 25, 0 100000"/>
    </clipPath>

    <clipPath id="arc-up" clipPathUnits="objectBoundingBox">
      <path d="M0,1 C.2,.5 .8,.5 1,1"/>
    </clipPath>

    <clipPath id="arc-down" clipPathUnits="objectBoundingBox">
      <path d="M0,0 Q.5,.75 1,0 L1,1 L0,1 z" />
    </clipPath>

    <clipPath id="box-more-round" clipPathUnits="objectBoundingBox">
      <path d="M.05,.15 Q.5,-.1 .95,.15 Q1.005,.5 .95,.9 Q.5,1.1 .05,.9 Q-.005,.5 .05,.15 z" />
    </clipPath>

    <clipPath id="box" clipPathUnits="objectBoundingBox">
      <path d="M.05,.05 Q.5,-.025 .95,.05 Q1.005,.5 .95,.975 Q.5,1.025 .05,.975 Q-.005,.5 .05,.05 z" />
    </clipPath>

  </defs>
</svg>
